<svg version="1" xmlns="http://www.w3.org/2000/svg" width="346.667" height="346.667" viewBox="0 0 260.000000 260.000000"><path d="M0 130v130h260V0H0v130zm120-50c0 .5.7 1 1.6 1 2.2 0 4.4 2.5 4.4 5s2.2 5 4.4 5c.9 0 1.6.4 1.6 1 0 .5-.4 1-1 1-.5 0-1 .9-1 2s-.4 2-1 2c-.5 0-1 1.1-1 2.5s-.4 2.5-1 2.5c-.5 0-1 1.3-1 3 0 1.6-.4 3-1 3-.5 0-1 .9-1 2s-.4 2-1 2c-.5 0-1 .9-1 2 0 1.3.7 2 2 2 1.1 0 2 .4 2 1s2.7 1 6 1 6 .4 6 1c0 .5 2.3 1 5 1 2.8 0 5 .4 5 1s2.7 1 6 1 6 .4 6 1 3 1 7 1 7 .4 7 1 2.7 1 6 1 6 .4 6 1c0 .5 2.1 1 4.6 1 2.6 0 5.2.6 6 1.4 1.6 1.7 1.9 4.6.4 4.6-.6 0-1 3-1 7v7h20v33H44v-33h57c37.3 0 57-.3 57-1 0-.6-2.7-1-6-1s-6-.4-6-1-2.7-1-6-1-6-.4-6-1-2.7-1-6-1-6-.4-6-1-2.7-1-6-1-6-.4-6-1-2.2-1-5-1c-2.7 0-5-.5-5-1 0-.6-3-1-7-1s-7-.4-7-1-2.5-1-5.6-1c-3.8 0-6.1-.5-7.2-1.7-1.2-1.2-1.3-1.8-.4-2.1.7-.2 1.2-2.3 1.2-5.3V120h-3.9c-3.1 0-4.1-.4-4.6-2-.4-1.1-1.7-3.2-3.1-4.5-2.1-2.1-2.4-3.3-2.4-9.5 0-4 .4-7 1-7s1-.9 1-2 .4-2 .9-2 1.3-.9 1.6-2c.4-1.3 1.5-2 3.1-2 1.3 0 2.4-.5 2.4-1 0-.6 1.4-1 3-1 1.7 0 3 .4 3 1 0 .5 1.1 1 2.5 1 2.9 0 7.5 4 7.5 6.5 0 .8.5 1.5 1 1.5.6 0 1 3.2 1 7.5v7.5h8c7.3 0 8-.2 8-2 0-1.1.5-2 1-2 .6 0 1-.9 1-2s.5-2 1-2c.6 0 1-.9 1-2s.5-2 1-2c.6 0 1-1.1 1-2.5s.5-2.5 1-2.5c.6 0 1-.9 1-2s.5-2 1-2c.6 0 1-.9 1-2s.5-2 1-2c.6 0 1-.9 1-2s.5-2 1-2c.6 0 1-.9 1-2s.5-2 1-2c.6 0 1 .4 1 1z"/></svg>